{"title":"Zindagi Tere Naam (2012)DvdScr","uid":7111577,"size":730344170,"categoryP":"video","categoryS":"movies","magnet":"?xt=urn:btih:a1fd1d562aa00923edc5379fdfe5f91d94608a34&amp;dn=Zindagi+Tere+Naam+%282012%29DvdScr&amp;tr=udp%3A%2F%2Ftracker.openbittorrent.com%3A80&amp;tr=udp%3A%2F%2Fopen.demonii.com%3A1337&amp;tr=udp%3A%2F%2Ftracker.coppersurfer.tk%3A6969&amp;tr=udp%3A%2F%2Fexodus.desync.com%3A6969","seeders":1,"leechers":0,"uploader":"arsenal_rocks","files":3,"time":1332086438,"description":" &lt;a href=&quot;http://i.minus.com/jg0LOVwQCMOku.jpg&quot; rel=&quot;nofollow&quot; target=&quot;_NEW&quot;&gt;http://i.minus.com/jg0LOVwQCMOku.jpg&lt;/a&gt;\n &lt;a href=&quot;\nhttp://i.minus.com/jBJDOhaSHD2Sa.PNG&quot; rel=&quot;nofollow&quot; target=&quot;_NEW&quot;&gt;\nhttp://i.minus.com/jBJDOhaSHD2Sa.PNG&lt;/a&gt;\n\nGeneral\nComplete name                            : Zindagi Tere Naam (2012)DvdScr.avi\nFormat                                   : AVI\nFormat/Info                              : Audio Video Interleave\nFile size                                : 697 MiB\nDuration                                 : 2h 0mn\nOverall bit rate                         : 806 Kbps\nWriting library                          : Boilsoft AVI tool build 1/release\n\nVideo\nID                                       : 0\nFormat                                   : MPEG-4 Visual\nFormat profile                           : Advanced Simple@L5\nFormat settings, BVOP                    : 2\nFormat settings, QPel                    : No\nFormat settings, GMC                     : No warppoints\nFormat settings, Matrix                  : Default (H.263)\nCodec ID                                 : XVID\nCodec ID/Hint                            : XviD\nDuration                                 : 2h 0mn\nBit rate                                 : 700 Kbps\nWidth                                    : 672 pixels\nHeight                                   : 288 pixels\nDisplay aspect ratio                     : 2.35:1\nFrame rate                               : 25.000 fps\nColor space                              : YUV\nChroma subsampling                       : 4:2:0\nBit depth                                : 8 bits\nScan type                                : Progressive\nCompression mode                         : Lossy\nBits/(Pixel*Frame)                       : 0.145\nStream size                              : 605 MiB (87%)\nWriting library                          : XviD 1.2.1 (UTC 2008-12-04)\n\nAudio\nID                                       : 1\nFormat                                   : MPEG Audio\nFormat version                           : Version 1\nFormat profile                           : Layer 3\nMode                                     : Joint stereo\nMode extension                           : MS Stereo\nCodec ID                                 : 55\nCodec ID/Hint                            : MP3\nDuration                                 : 2h 0mn\nBit rate mode                            : Constant\nBit rate                                 : 96.0 Kbps\nChannel(s)                               : 2 channels\nSampling rate                            : 32.0 KHz\nCompression mode                         : Lossy\nStream size                              : 83.0 MiB (12%)\nAlignment                                : Split accross interleaves\nInterleave, duration                     : 40 ms (1.00 video frame)\nInterleave, preload duration             : 500 ms\nWriting library                          : LAME3.99r\nEncoding settings                        : -m j -V 4 -q 2 -lowpass 15.1 -b 96\n\n &lt;a href=&quot;\nhttp://i.minus.com/jGqPy9sa7zY4H.jpg&quot; rel=&quot;nofollow&quot; target=&quot;_NEW&quot;&gt;\nhttp://i.minus.com/jGqPy9sa7zY4H.jpg&lt;/a&gt;","torrent":{"xt":"urn:btih:a1fd1d562aa00923edc5379fdfe5f91d94608a34","amp;dn":"Zindagi+Tere+Naam+%282012%29DvdScr","amp;tr":["udp%3A%2F%2Ftracker.openbittorrent.com%3A80","udp%3A%2F%2Fopen.demonii.com%3A1337","udp%3A%2F%2Ftracker.coppersurfer.tk%3A6969","udp%3A%2F%2Fexodus.desync.com%3A6969"],"infoHash":"a1fd1d562aa00923edc5379fdfe5f91d94608a34","infoHashBuffer":{"type":"Buffer","data":[161,253,29,86,42,160,9,35,237,197,55,159,223,229,249,29,148,96,138,52]},"announce":[],"urlList":[]}}